<svg width="1200" height="1200" viewBox="0 0 1200 1200" fill="none" xmlns="http://www.w3.org/2000/svg">
<path d="M743.078 133.424C853.12 128.298 953.599 208.309 965.937 318.945C976.916 330.785 1006.56 337.939 1014.43 350.793C1022.29 363.647 1017.56 397.293 1013.76 412.672C997.268 479.236 933.247 525.583 884.72 568.755C935.829 624.015 969.093 693.851 976.438 769.406C982.846 835.244 968.863 919.158 925.787 971.205C837.283 1078.17 666.184 1037.67 642.236 898.94C625.843 803.951 669.091 720.19 729.765 650.852C736.766 642.837 771.158 606.15 778.885 604.352C803.541 598.613 816.739 622.428 801.494 642.244C789.807 657.432 769.895 673.174 756.544 689.107C719.742 733.101 687.167 789.146 683.82 847.83C674.409 1013.02 876.82 1039.76 922.344 879.774C964.77 730.672 876.342 571.509 731.544 522.714C661.077 498.976 532.729 495.074 485.98 563.916C466.126 593.162 456.695 629.773 419.798 643.105C369.683 661.219 298.489 659.077 248.068 676.043C216.469 686.678 227.678 721.414 235.654 745.075C255.604 804.123 303.366 848.156 360.559 870.746C424.408 895.975 473.643 893.661 526.99 945.325C574.236 991.079 625.518 1051.24 669.474 1101.24C681.257 1114.63 702.928 1132.51 693.116 1151.71C683.303 1170.92 663.028 1161.74 651.226 1150.09C603.98 1103.42 561.019 1046.24 514.538 997.946C457.958 939.166 437.797 944.637 364.805 920.057C279.973 891.499 214.575 835.856 188.924 747.811C146.403 601.865 310.214 629.027 399.541 601.827C422.877 594.711 436.822 554.409 450.785 534.478C508.207 452.534 650.403 450.832 736.9 477.19C778.847 489.967 815.802 511.716 851.189 537.022C893.882 500.201 964.808 448.307 972.134 388.264C972.899 381.914 974.257 378.069 968.748 373.517C959.146 365.598 934.184 358.521 927.011 348.306C919.838 338.092 920.852 319.767 918.136 307.449C903.178 239.258 842.179 186.198 772.516 179.541C748.874 177.284 701.857 190.195 697.362 159.055C694.531 139.506 701.8 111.886 699.199 90.2714C698.778 86.7901 698.931 83.8444 694.512 83.7679C677.335 83.4236 643.498 102.112 630.223 113.301L249.617 532.278C224.081 553.204 196.767 519.137 219.912 496.834L585.254 93.2362C613.984 64.3531 654.918 41.2467 696.253 37.8228C716.987 36.1013 744.149 34.5519 744.799 61.9239C744.895 65.6538 743.001 69.2116 743.001 73.1137C743.001 93.2171 743.193 113.359 743.078 133.443V133.424Z" fill="#F86F03" stroke="#F86F03" stroke-width="13.1367"/>
<path d="M845.775 275.563C856.869 285.605 857.022 332.774 849.907 344.5C839.425 361.772 812.627 356.665 808.552 336.696C807.003 329.083 807.003 295.456 808.552 287.843C811.9 271.412 834.165 265.043 845.775 275.563Z" fill="#F86F03"/>
<path d="M539.768 590.981C551.876 587.404 568.689 593.411 570.831 606.953C572.056 614.681 572.151 650.986 570.544 658.082C565.858 678.797 530.663 679.907 527.086 656.456C525.862 648.48 525.709 612.634 527.373 605.346C528.234 601.54 536.248 592.033 539.787 591.001L539.768 590.981Z" fill="#F86F03"/>
</svg>
