<svg width="1200" height="1200" viewBox="0 0 1200 1200" fill="none" xmlns="http://www.w3.org/2000/svg">
<g clip-path="url(#clip0_108_95)">
<g clip-path="url(#clip1_108_95)">
<path d="M892.42 644.071C929.029 667.205 945.325 709.964 961.685 748.676C964.443 754.383 967.931 762.489 972.718 764.888C995.842 767.868 1003.41 642.729 1087.1 636.546C1186.99 632.657 1196.52 784.418 1199.62 866.312C1199.49 913.542 1207.06 978.325 1160.03 1006.32C1136.73 1018.96 1105.61 1012.87 1089.3 991.716C1076.12 975.451 1073.52 953.796 1073.44 933.516C1073.51 901.589 1076.21 869.842 1072.98 838.105C1069.02 808.989 1059.44 811.906 1050.17 838.158C1037.42 868.478 1030.33 909.991 1004.96 933.04C985.03 949.939 952.807 945.891 935.687 926.562C924.791 914.937 918.915 899.729 913.683 884.88C909.15 875.654 889.26 791.055 876.895 830.496C872.129 854.708 874.158 879.85 874.391 904.284C875.183 933.97 878.29 967.916 858.358 992.276C837.972 1017.62 795.625 1019.98 773.601 995.562C760.115 981.517 754.208 961.691 751.185 942.288C743.143 866.048 746.091 695.623 814.975 647.4C837.042 631.611 868.958 628.25 892.24 643.944L892.42 644.05V644.071Z" fill="#F06E06"/>
<path d="M601.168 637.265C628.054 641.851 655.214 652.229 675.527 670.999C708.51 701.161 718.666 750.789 706.64 793.263C701.387 813.058 688.504 832.334 675.062 846.919C659.294 863.469 660.467 873.361 673.297 892.141C685.44 909.314 700.721 925.769 703.85 947.201C706.671 964.343 700.7 982.394 688.388 994.59C663.035 1020.03 619.229 1015.95 594.742 991.081C577.484 973.908 565.595 951.672 555.481 929.753C551.148 920.643 546.477 908.004 538.107 903.132C524.516 896.748 522.804 918.847 522.582 928.601C522.159 947.191 520.257 966.573 510.122 982.626C485.529 1023.06 423.567 1019.36 403.657 976.254C391.302 950.689 389.781 921.573 387.434 893.694C384.581 845.809 384.592 797.681 389.981 749.986C393.173 719.729 401.924 687.802 424.476 666.201C465.534 627.869 548.474 629.254 600.957 637.212L601.157 637.243L601.168 637.265ZM536.405 732.591C513.366 741.595 506.138 773.522 523.523 791.266C549.003 817.306 600.566 794.796 591.572 757.194C586.362 733.88 557.394 723.798 536.606 732.517L536.405 732.601V732.591Z" fill="#F06E06"/>
<path d="M179.387 632.699C224.439 630.395 277.207 638.11 313.298 666.782C324.151 675.321 333.969 685.794 340.49 697.948C353.838 721.748 352.178 754.541 332.004 774.071C313.731 792.661 284.076 796.349 260.773 785.422C245.1 778.679 231.922 766.473 216.185 760.185C197.575 752.269 174.958 755.503 159.603 768.84C124.389 799.055 130.054 868.267 174.081 886.36C191.582 893.853 211.948 891.295 228.254 881.921C243.969 873.012 259.061 860.7 277.165 856.895C298.005 851.653 321.245 858.174 335.903 874.005C353.669 892.088 354.683 920.855 343.502 942.921C333.282 964.005 314.904 980.079 294.613 991.345C264.514 1007.93 230.104 1015.48 195.894 1015.36C159.941 1016.29 123.618 1007.83 92.0712 990.531C63.9172 974.859 40.297 950.985 24.3388 923.053C-4.67117 868.52 -7.97905 799.076 15.6834 742.007C30.8701 707.047 54.9552 678.671 87.7804 659.299C115.226 642.432 147.47 635.278 179.175 632.72H179.387V632.699Z" fill="#F06E06"/>
<path d="M309.028 185.976C339.644 189.781 370.493 200.973 394.272 221.148C438.268 258.116 446.839 325.098 426.495 376.861C406.225 431.034 347.222 461.101 291.368 460.319C255.288 460.478 254.686 473.054 251.917 504.209C248.461 542.382 216.999 572.491 177.537 562.959C128.796 551.344 121.25 494.402 114.677 452.425C108.558 410.151 107.797 367.128 110.862 324.612C112.288 306.772 114.455 288.954 119.401 271.685C131.565 226.221 165.912 199.451 211.134 190.246C243.251 183.747 276.446 182.32 308.817 185.955L309.028 185.976ZM243.156 305.176C237.607 315.037 236.424 327.697 239.763 338.562C245.798 360.184 270.834 369.146 291.537 361.918C315.158 354.488 326.276 326.387 313.171 305.145C298.734 280.679 257.085 279.316 243.251 304.986L243.145 305.166L243.156 305.176Z" fill="#F06E06"/>
<path d="M599.593 187.181C628.075 185.194 656.652 185.216 685.017 188.354C705.858 190.944 729.002 195.499 743.291 212.154C758.245 229.433 758.858 257.418 744.464 275.173C719.818 304.87 676.615 293.509 642.902 293.921C627.367 293.678 604.972 298.476 604.634 317.119C606.008 334.26 627.758 334.873 641.528 334.303C663.627 333.753 688.061 332.453 707.887 343.317C727.85 354.023 736.241 379.873 721.404 398.23C701.831 421.269 666.237 418.627 637.206 418.712C628.952 418.744 619.546 419.23 612.687 423.446C602.679 429.196 601.802 441.92 609.263 450.301C612.973 454.665 618.373 457.762 624.344 459.484C657.085 467.263 693.123 450.618 725.43 462.475C734.128 465.667 742.001 471.247 747.412 478.814C764.934 503.808 754.599 537.014 727.364 549.917C713.488 556.903 697.414 559.556 681.942 561.595C657.698 564.639 633.031 565.453 608.714 564.565C567.275 563.001 523.227 556.924 495.812 522.355C476.726 498.809 471.632 467.485 467.31 438.073C461.74 396.846 462.226 354.816 466.697 313.525C477.424 223.388 509.889 192.74 599.371 187.181L599.593 187.16V187.181Z" fill="#F06E06"/>
<path d="M893.973 185.871C926.302 184.433 959.656 184.75 992.259 186.219C1017.13 187.509 1043.87 189.453 1065.24 203.382C1098.02 223.314 1101.86 277.53 1071.5 301.181C1048.24 321.177 1012.1 310.101 1002.86 333.51C999.509 341.986 1000.15 351.962 1000.53 361.04C1001.5 378.14 1002.47 395.197 1003.02 412.381C1003.24 446.253 1006.71 480.864 998.336 513.964C991.593 540.099 969.801 561.162 942.503 563.772C913.747 567.735 885.656 550.689 875.659 523.454C870.11 509.546 868.525 494.391 867.827 479.501C866.464 440.546 867.637 401.559 870.491 362.721C871.907 344.755 872.847 323.703 851.087 318.598C831.842 314.434 812.09 314.434 796.977 299.406C767.016 270.903 775.334 215.969 813.718 199.229C838.278 187.477 867.183 187.477 893.773 185.881H893.984L893.973 185.871Z" fill="#F06E06"/>
</g>
</g>
<defs>
<clipPath id="clip0_108_95">
<rect width="1200" height="1200" fill="white" transform="translate(1200 5.24537e-05) rotate(90)"/>
</clipPath>
<clipPath id="clip1_108_95">
<rect width="1200" height="831.42" fill="white" transform="translate(5.24537e-05 184)"/>
</clipPath>
</defs>
</svg>
